<svg width="120" height="120" viewBox="0 0 120 120" fill="none" xmlns="http://www.w3.org/2000/svg">
<rect width="120" height="120" rx="60" fill="#87F5CE"/>
<path d="M47.6147 74.5833C45.7312 76.2037 43.7693 76.9444 41.7288 76.8056C39.6884 76.6667 37.9059 75.9491 36.3812 74.6528C34.8564 73.3565 33.8138 71.6551 33.2533 69.5486C32.6927 67.4421 33.0627 65.2778 34.3632 63.0556L39.4081 54.4444C38.287 53.4259 37.4014 52.1991 36.7511 50.7639C36.1009 49.3287 35.7758 47.7778 35.7758 46.1111C35.7758 43.0556 36.8296 40.4398 38.9373 38.2639C41.045 36.088 43.5787 35 46.5384 35C49.4981 35 52.0318 36.088 54.1395 38.2639C56.2472 40.4398 57.301 43.0556 57.301 46.1111C57.301 49.1667 56.2472 51.7824 54.1395 53.9583C52.0318 56.1343 49.4981 57.2222 46.5384 57.2222C46.1348 57.2222 45.7312 57.1991 45.3276 57.1528C44.924 57.1065 44.5428 57.037 44.1841 56.9444L39.0045 65.9722C38.5113 66.8056 38.3543 67.6273 38.5337 68.4375C38.7131 69.2477 39.0942 69.9074 39.6772 70.4167C40.2602 70.9259 40.9553 71.2153 41.7625 71.2847C42.5697 71.3542 43.3544 71.0648 44.1168 70.4167L72.3687 45.3472C74.2522 43.7269 76.2253 42.9977 78.2882 43.1597C80.351 43.3218 82.1448 44.0509 83.6695 45.3472C85.1942 46.6435 86.2256 48.3449 86.7637 50.4514C87.3019 52.5579 86.9207 54.7222 85.6202 56.9444L80.5752 65.5556C81.6963 66.5741 82.582 67.8009 83.2323 69.2361C83.8825 70.6713 84.2076 72.2222 84.2076 73.8889C84.2076 76.9444 83.1538 79.5602 81.0461 81.7361C78.9384 83.912 76.4047 85 73.445 85C70.4853 85 67.9516 83.912 65.8439 81.7361C63.7362 79.5602 62.6823 76.9444 62.6823 73.8889C62.6823 70.8333 63.7362 68.2176 65.8439 66.0417C67.9516 63.8657 70.4853 62.7778 73.445 62.7778C73.8486 62.7778 74.241 62.8009 74.6221 62.8472C75.0033 62.8935 75.3733 62.963 75.732 63.0556L80.9788 54.0278C81.4721 53.1944 81.6291 52.3727 81.4497 51.5625C81.2703 50.7523 80.8891 50.0926 80.3062 49.5833C79.7232 49.0741 79.0281 48.7847 78.2209 48.7153C77.4137 48.6458 76.6289 48.9352 75.8666 49.5833L47.6147 74.5833ZM46.5384 51.6667C48.0183 51.6667 49.2851 51.1227 50.3389 50.0347C51.3928 48.9468 51.9197 47.6389 51.9197 46.1111C51.9197 44.5833 51.3928 43.2755 50.3389 42.1875C49.2851 41.0995 48.0183 40.5556 46.5384 40.5556C45.0585 40.5556 43.7917 41.0995 42.7378 42.1875C41.684 43.2755 41.1571 44.5833 41.1571 46.1111C41.1571 47.6389 41.684 48.9468 42.7378 50.0347C43.7917 51.1227 45.0585 51.6667 46.5384 51.6667ZM73.445 79.4444C74.9248 79.4444 76.1917 78.9005 77.2455 77.8125C78.2994 76.7245 78.8263 75.4167 78.8263 73.8889C78.8263 72.3611 78.2994 71.0532 77.2455 69.9653C76.1917 68.8773 74.9248 68.3333 73.445 68.3333C71.9651 68.3333 70.6983 68.8773 69.6444 69.9653C68.5906 71.0532 68.0637 72.3611 68.0637 73.8889C68.0637 75.4167 68.5906 76.7245 69.6444 77.8125C70.6983 78.9005 71.9651 79.4444 73.445 79.4444Z" fill="#1F1F1F"/>
</svg>
