<svg width="120" height="120" viewBox="0 0 120 120" fill="none" xmlns="http://www.w3.org/2000/svg">
<rect width="120" height="120" rx="60" fill="#87F5CE"/>
<path d="M38.0869 84.3591C36.6096 84.3591 35.3449 83.829 34.2929 82.769C33.2409 81.7089 32.7148 80.4346 32.7148 78.946V41.0542C32.7148 39.5656 33.2409 38.2913 34.2929 37.2312C35.3449 36.1711 36.6096 35.6411 38.0869 35.6411H51.5172C52.9945 35.6411 54.2592 36.1711 55.3112 37.2312C56.3632 38.2913 56.8893 39.5656 56.8893 41.0542V78.946C56.8893 80.4346 56.3632 81.7089 55.3112 82.769C54.2592 83.829 52.9945 84.3591 51.5172 84.3591H38.0869ZM67.6334 84.3591C66.1561 84.3591 64.8914 83.829 63.8394 82.769C62.7874 81.7089 62.2614 80.4346 62.2614 78.946V41.0542C62.2614 39.5656 62.7874 38.2913 63.8394 37.2312C64.8914 36.1711 66.1561 35.6411 67.6334 35.6411H81.0637C82.541 35.6411 83.8057 36.1711 84.8577 37.2312C85.9098 38.2913 86.4358 39.5656 86.4358 41.0542V78.946C86.4358 80.4346 85.9098 81.7089 84.8577 82.769C83.8057 83.829 82.541 84.3591 81.0637 84.3591H67.6334ZM38.0869 78.946H51.5172V41.0542H38.0869V78.946ZM67.6334 78.946H81.0637V41.0542H67.6334V78.946ZM40.773 68.1197H48.8311V62.7066H40.773V68.1197ZM70.3195 68.1197H78.3776V62.7066H70.3195V68.1197ZM40.773 60.0001H48.8311V54.587H40.773V60.0001ZM70.3195 60.0001H78.3776V54.587H70.3195V60.0001ZM40.773 51.8804H48.8311V46.4673H40.773V51.8804ZM70.3195 51.8804H78.3776V46.4673H70.3195V51.8804Z" fill="#1F1F1F"/>
</svg>
