<svg width="120" height="120" viewBox="0 0 120 120" fill="none" xmlns="http://www.w3.org/2000/svg">
<rect width="120" height="120" rx="60" fill="#87F5CE"/>
<path d="M48.7273 75.2326V73.4496C48.7273 71.1757 49.7606 69.354 51.8273 67.9845C53.8939 66.615 56.6182 65.9302 60 65.9302C63.3818 65.9302 66.1061 66.615 68.1727 67.9845C70.2394 69.354 71.2727 71.1757 71.2727 73.4496V75.2326H48.7273ZM60 62.8295C58.45 62.8295 57.1231 62.2222 56.0193 61.0078C54.9155 59.7933 54.3636 58.3333 54.3636 56.6279C54.3636 54.9225 54.9155 53.4625 56.0193 52.2481C57.1231 51.0336 58.45 50.4264 60 50.4264C61.55 50.4264 62.8769 51.0336 63.9807 52.2481C65.0845 53.4625 65.6364 54.9225 65.6364 56.6279C65.6364 58.3333 65.0845 59.7933 63.9807 61.0078C62.8769 62.2222 61.55 62.8295 60 62.8295ZM34.6364 51.0465V74.7674C35.2939 75.4393 36.0924 76.0207 37.0318 76.5116C37.9712 77.0026 39.0515 77.3773 40.2727 77.6357V53.062C39.2394 52.8036 38.2413 52.5065 37.2784 52.1705C36.3155 51.8346 35.4348 51.4599 34.6364 51.0465ZM85.3636 50.969C84.5652 51.3824 83.6962 51.7571 82.7568 52.093C81.8174 52.4289 80.8076 52.7261 79.7273 52.9845V77.6357C80.9485 77.3773 82.0288 77.0026 82.9682 76.5116C83.9076 76.0207 84.7061 75.4393 85.3636 74.7674V50.969ZM45.9091 85C40.5076 84.2765 36.339 83.062 33.4034 81.3566C30.4678 79.6512 29 77.6098 29 75.2326V44.2248C29 41.2791 31.6655 39.0052 36.9966 37.4031C42.3277 35.801 49.9955 35 60 35C70.0045 35 77.6723 35.801 83.0034 37.4031C88.3345 39.0052 91 41.2791 91 44.2248V75.2326C91 77.6098 89.5322 79.6512 86.5966 81.3566C83.661 83.062 79.4924 84.2765 74.0909 85V47.7907C76.4864 47.3773 78.6117 46.8734 80.467 46.2791C82.3223 45.6848 83.6492 45.1034 84.4477 44.5349C82.428 43.6563 78.9758 42.8682 74.0909 42.1705C69.2061 41.4729 64.5091 41.124 60 41.124C55.4909 41.124 50.7939 41.4729 45.9091 42.1705C41.0242 42.8682 37.572 43.6563 35.5523 44.5349C36.3508 45.155 37.6777 45.7494 39.533 46.3178C41.3883 46.8863 43.5136 47.3773 45.9091 47.7907V85Z" fill="#1F1F1F"/>
</svg>
